<?xml version="1.0" standalone="no"?>
<!DOCTYPE svg PUBLIC "-//W3C//DTD SVG 20010904//EN"
 "http://www.w3.org/TR/2001/REC-SVG-20010904/DTD/svg10.dtd">
<svg version="1.0" xmlns="http://www.w3.org/2000/svg"
 width="512.000000pt" height="512.000000pt" viewBox="0 0 512.000000 512.000000"
 preserveAspectRatio="xMidYMid meet">

<g transform="translate(0.000000,512.000000) scale(0.100000,-0.100000)"
fill="#000000" stroke="none">
<path d="M410 4412 l0 -247 -206 -720 c-204 -715 -205 -721 -199 -790 19 -186
110 -337 262 -436 63 -41 180 -88 221 -89 l22 0 0 -835 0 -835 2050 0 2050 0
0 835 0 835 23 0 c40 1 157 48 220 89 150 97 241 249 262 433 6 53 -7 105
-199 783 l-206 726 0 250 0 249 -2150 0 -2150 0 0 -248z m1629 -389 c0 -10
-19 -261 -42 -558 l-42 -540 -353 -3 c-238 -1 -352 1 -352 8 0 6 38 255 85
554 47 299 85 547 85 550 0 3 140 6 310 6 289 0 310 -1 309 -17z m1665 -15
c13 -71 166 -1061 166 -1074 0 -12 -56 -14 -350 -14 l-349 0 -5 33 c-3 17 -21
248 -41 512 -19 264 -38 501 -41 528 l-6 47 310 0 310 0 6 -32z m-1746 -1346
c-11 -117 -108 -246 -222 -298 -78 -36 -185 -44 -268 -19 -137 39 -252 173
-273 318 l-7 47 387 0 388 0 -5 -48z m1972 25 c0 -40 -30 -127 -61 -178 -38
-60 -96 -111 -169 -147 -49 -24 -66 -27 -155 -27 -88 0 -107 3 -157 27 -117
55 -215 184 -226 298 l-5 50 387 0 386 0 0 -23z m-2690 -460 l35 -26 -72 -1
-73 0 0 -765 0 -765 -205 0 -205 0 0 735 c0 581 3 735 13 735 16 0 161 75 212
110 22 15 62 50 90 78 l50 50 60 -62 c33 -34 76 -74 95 -89z m840 146 c0 -13
99 -112 143 -144 l40 -29 -194 1 c-183 0 -193 1 -169 16 14 9 57 49 95 89 67
69 85 83 85 67z m1140 -156 c24 -15 14 -16 -168 -16 l-194 -1 60 45 c32 25 76
65 96 89 l36 44 73 -72 c39 -40 83 -80 97 -89z m1030 -13 c41 -23 92 -47 113
-55 l37 -13 0 -733 0 -733 -1020 0 -1020 0 0 744 0 744 73 -19 c91 -24 163
-24 254 0 l73 19 2 -592 3 -591 613 -3 612 -2 0 615 0 615 -72 0 -73 1 35 26
c19 15 62 55 95 89 l60 62 70 -67 c39 -36 104 -84 145 -107z m-2100 -476 l0
-263 -397 -397 c-219 -219 -404 -398 -410 -398 -10 0 -13 67 -13 307 l0 307
352 353 353 353 57 0 58 0 0 -262z m1640 155 l0 -107 -297 -298 -298 -298
-112 0 -113 0 0 107 0 108 297 297 298 298 112 0 113 0 0 -107z"/>
</g>
</svg>
